<?xml version="1.0" encoding="UTF-8" standalone="no"?>
<!-- Created with Inkscape (http://www.inkscape.org/) -->

<svg
   xmlns:dc="http://purl.org/dc/elements/1.1/"
   xmlns:cc="http://creativecommons.org/ns#"
   xmlns:rdf="http://www.w3.org/1999/02/22-rdf-syntax-ns#"
   xmlns:svg="http://www.w3.org/2000/svg"
   xmlns="http://www.w3.org/2000/svg"
   xmlns:xlink="http://www.w3.org/1999/xlink"
   xmlns:sodipodi="http://sodipodi.sourceforge.net/DTD/sodipodi-0.dtd"
   xmlns:inkscape="http://www.inkscape.org/namespaces/inkscape"
   inkscape:export-ydpi="90"
   inkscape:export-xdpi="90"
   inkscape:export-filename="/home/tom/git/doing_math/Assets/art/png/character/wizard_side_magic_tomato.png"
   sodipodi:docname="wizard_with_magic_tomato_with_hat.svg"
   inkscape:version="0.92.3 (2405546, 2018-03-11)"
   version="1.1"
   id="svg2"
   viewBox="0 0 744.09448819 1052.3622047"
   height="297mm"
   width="210mm">
  <defs
     id="defs4">
    <clipPath
       clipPathUnits="userSpaceOnUse"
       id="clipPath4408">
      <path
         style="display:inline;fill:#808000;fill-opacity:1;fill-rule:evenodd;stroke:#000000;stroke-width:0;stroke-linecap:butt;stroke-linejoin:miter;stroke-miterlimit:4;stroke-dasharray:none;stroke-opacity:1"
         clip-path="none"
         d="m 319.57587,566.43934 c 17.82211,12.60272 42.24574,23.48056 77.29209,31.51103 61.97642,-86.33189 -55.41656,-125.62144 39.35568,-260.69994 L 630.12018,60.889111 563.86781,14.121052 348.37328,272.26679 c -90.1771,108.0251 -152.19997,39.04782 -216.05463,124.67729 156.74081,27.89509 110.02811,114.8835 187.25722,169.49526 z"
         id="path4410"
         inkscape:connector-curvature="0" />
    </clipPath>
    <clipPath
       clipPathUnits="userSpaceOnUse"
       id="clipPath4412">
      <path
         style="display:inline;fill:#808000;fill-opacity:1;fill-rule:evenodd;stroke:#000000;stroke-width:0;stroke-linecap:butt;stroke-linejoin:miter;stroke-miterlimit:4;stroke-dasharray:none;stroke-opacity:1"
         clip-path="none"
         d="m 456.99424,664.63216 c 17.82211,12.60272 42.24574,23.48057 77.29209,31.51103 61.97642,-86.33189 -55.41656,-125.62144 39.35568,-260.69994 L 767.53855,159.08193 701.28618,112.31388 485.79165,370.45961 c -90.1771,108.0251 -152.19997,39.04782 -216.05463,124.67729 156.74081,27.8951 110.02811,114.8835 187.25722,169.49526 z"
         id="path4414"
         inkscape:connector-curvature="0" />
    </clipPath>
    <clipPath
       clipPathUnits="userSpaceOnUse"
       id="clipPath4306">
      <path
         style="display:inline;fill:#ffffff;fill-opacity:1;fill-rule:evenodd;stroke:#000000;stroke-width:0;stroke-linecap:butt;stroke-linejoin:miter;stroke-miterlimit:4;stroke-dasharray:none;stroke-opacity:0"
         d="m 252.70774,386.60955 c 130.54638,-53.57477 113.80088,69.79975 244.34726,8.57143 -2.04894,78.5783 -68.60796,63.43247 -76.97731,166.64556 l -20,246.64553 -59.67835,0 -0.71429,-248.43124 c -0.34912,-121.42738 -87.59898,-95.2278 -86.97731,-173.43128 z"
         id="path4308"
         inkscape:connector-curvature="0"
         sodipodi:nodetypes="ccsccsc"
         clip-path="none" />
    </clipPath>
  </defs>
  <sodipodi:namedview
     inkscape:window-maximized="1"
     inkscape:window-y="-8"
     inkscape:window-x="-8"
     inkscape:window-height="1017"
     inkscape:window-width="1920"
     showgrid="false"
     inkscape:current-layer="layer3"
     inkscape:document-units="px"
     inkscape:cy="598.88967"
     inkscape:cx="-100.43057"
     inkscape:zoom="0.70710678"
     inkscape:pageshadow="2"
     inkscape:pageopacity="0.0"
     borderopacity="1.0"
     bordercolor="#666666"
     pagecolor="#ffffff"
     id="base" />
  <metadata
     id="metadata7">
    <rdf:RDF>
      <cc:Work
         rdf:about="">
        <dc:format>image/svg+xml</dc:format>
        <dc:type
           rdf:resource="http://purl.org/dc/dcmitype/StillImage" />
        <dc:title />
      </cc:Work>
    </rdf:RDF>
  </metadata>
  <g
     inkscape:groupmode="layer"
     id="layer6"
     inkscape:label="head"
     style="display:inline">
    <path
       style="fill:#ffffff;fill-opacity:1;fill-rule:evenodd;stroke:#bbbbbb;stroke-width:5.53515577;stroke-linecap:butt;stroke-linejoin:miter;stroke-miterlimit:4;stroke-dasharray:none;stroke-opacity:1"
       d="m 355.97372,369.69748 c -34.61783,-28.66208 -38.04255,-95.81237 -17.78881,-134.55155 7.77555,-14.87224 27.05704,-18.91634 38.81194,-30.1581 7.4186,-7.09476 13.9525,-20.30299 21.02314,-27.06498 4.02775,-3.85191 20.69039,-35.57109 21.83173,-35.57109 4.48694,0 -3.0792,46.08463 15.36305,54.90322 8.37931,4.00676 40.33948,2.23414 47.70636,9.27942 15.72676,15.04023 64.96824,87.88509 35.5776,115.99271 -6.95207,6.64859 -7.10613,29.2212 -23.44887,31.70468 -14.97283,2.2753 -24.54883,-0.49465 -33.96046,8.50613 -13.24546,12.66726 -14.27005,36.07238 -26.68321,47.94367 -1.83859,1.75833 -25.73319,8.6414 -29.10896,5.41298 -10.32317,-9.87252 -51.30524,-35.0258 -49.32351,-46.39709 z"
       id="path4385"
       inkscape:connector-curvature="0"
       sodipodi:nodetypes="csssssssssssc" />
    <path
       style="fill:#ffc20a;fill-opacity:1;stroke:none;stroke-width:4.35650253;stroke-linecap:round;stroke-linejoin:round;stroke-miterlimit:4;stroke-dasharray:none;stroke-opacity:1"
       d="m 373.16496,211.81562 c 6.00769,-5.11888 9.39227,-8.14343 17.08767,-19.26243 4.64308,-6.70874 6.48996,-9.13874 8.93858,-11.76078 3.08382,-3.30225 5.83059,-7.636 15.01781,-23.69471 2.35862,-4.12275 4.33286,-7.45145 4.38718,-7.39714 0.0543,0.0543 0.188,2.5787 0.29705,5.60974 0.54925,15.26564 1.48431,22.42483 3.9111,29.9449 l 0.7957,2.46565 -0.95568,1.30666 c -3.43066,4.69064 -7.1285,8.51313 -9.23026,9.54142 l -1.22946,0.60153 0.0762,0.95849 0.0761,0.9585 -1.15393,0.23955 c -0.63468,0.13176 -2.08314,0.69387 -3.21882,1.24913 -4.85286,2.3727 -8.33728,7.049 -19.41127,9.41838 -6.46937,1.38417 -18.35975,1.66819 -20.37686,2.30157 -0.35262,0.11072 4.55118,-2.16203 4.98873,-2.48046 z"
       id="path4413"
       inkscape:connector-curvature="0"
       sodipodi:nodetypes="cssscsscsscccssssc" />
  </g>
  <g
     inkscape:groupmode="layer"
     id="layer15"
     inkscape:label="tail">
    <g
       id="g4965"
       transform="matrix(0.87130053,0,0,0.87130053,89.478119,99.108578)">
      <path
         sodipodi:nodetypes="cssssc"
         inkscape:connector-curvature="0"
         id="path4622"
         d="M 246.01225,703.9676 C 97.448842,649.18155 257.2862,403.37884 211.94202,334.07132 c -7.51644,-11.4887 -63.76617,-85.72284 -76.55653,-76.22191 -21.81074,16.20146 63.17476,57.67611 56.15758,126.3428 -8.71969,85.32677 -55.31372,206.32447 -19.29406,303.15028 22.69125,60.99721 111.90387,66.43112 73.76324,16.62511 z"
         style="fill:#ffffff;fill-opacity:1;fill-rule:evenodd;stroke:#bbbbbb;stroke-width:3.56549883;stroke-linecap:butt;stroke-linejoin:miter;stroke-miterlimit:4;stroke-dasharray:none;stroke-opacity:1" />
      <path
         inkscape:connector-curvature="0"
         id="path4630"
         d="m 158.77052,299.52119 c -1.1683,-1.39603 -4.54715,-5.33302 -7.50857,-8.74888 -8.48857,-9.79112 -11.52402,-13.58011 -14.1717,-17.68982 -2.61869,-4.0647 -3.75834,-7.41287 -3.33566,-9.79983 0.21525,-1.21555 1.35585,-2.91762 2.54641,-3.79986 0.6505,-0.48205 0.88091,-0.55313 1.84694,-0.56976 3.01095,-0.0518 8.62975,3.27832 15.08069,8.93806 5.8799,5.15874 13.39913,12.8148 20.67857,21.05481 l 1.27176,1.43959 -1.95685,1.52123 c -4.5982,3.57459 -6.08847,4.75936 -8.20092,6.5198 -1.22963,1.02473 -2.66113,2.27034 -3.18109,2.76803 l -0.94541,0.90488 z"
         style="fill:#000000;fill-opacity:1;stroke:none;stroke-width:1.26269066;stroke-linecap:round;stroke-linejoin:round;stroke-miterlimit:4;stroke-dasharray:none;stroke-opacity:1" />
      <path
         inkscape:connector-curvature="0"
         id="path4632"
         d="m 205.87804,725.35732 c -14.99231,-9.38009 -26.05067,-22.89275 -32.10693,-39.23273 -4.45339,-12.01539 -7.79806,-25.21221 -10.13987,-40.00805 -0.87092,-5.50257 -2.46387,-21.73982 -2.70195,-27.54128 -0.92586,-22.56262 0.37516,-46.00462 4.08351,-73.57709 0.37754,-2.8071 0.72321,-5.14953 0.76817,-5.20536 0.12361,-0.15356 5.59866,0.91289 10.50705,2.04661 2.40109,0.55459 5.26329,1.20692 6.36049,1.4496 1.13118,0.25022 2.00547,0.5394 2.01935,0.66792 0.0135,0.12466 -0.19572,1.5352 -0.46488,3.13453 -3.9552,23.50233 -5.48439,45.0291 -4.50179,63.37284 0.44964,8.39404 2.19254,20.43138 3.99157,27.56812 4.38751,17.40492 11.90423,31.52953 22.97029,43.16328 6.79765,7.14636 15.75037,13.72734 25.34676,18.63192 3.76003,1.92169 9.33576,4.41205 11.93651,5.33133 0.64507,0.22801 1.03398,0.53038 1.53395,1.1926 l 0.66978,0.88712 -0.72508,7.54941 c -0.3988,4.15217 -0.71781,7.61675 -0.70891,7.69904 0.009,0.0823 -8.27269,1.04537 -18.40355,2.14018 l -18.41971,1.99056 z"
         style="fill:#806000;fill-opacity:1;stroke:none;stroke-width:5;stroke-linecap:round;stroke-linejoin:round;stroke-miterlimit:4;stroke-dasharray:none;stroke-opacity:1" />
      <path
         inkscape:connector-curvature="0"
         id="path4634"
         d="m 237.87802,735.78271 c -7.99096,-0.0196 -17.29356,-2.594 -26.505,-7.33495 l -3.23773,-1.66641 18.23129,-2.06075 c 10.0272,-1.13339 18.24746,-2.05999 18.26724,-2.05905 0.0937,0.004 -1.27076,12.36328 -1.37997,12.49942 -0.17791,0.22174 -3.67252,0.62592 -5.37583,0.62175 z"
         style="fill:#806000;fill-opacity:1;stroke:none;stroke-width:5;stroke-linecap:round;stroke-linejoin:round;stroke-miterlimit:4;stroke-dasharray:none;stroke-opacity:1" />
      <path
         inkscape:connector-curvature="0"
         id="path4636"
         d="m 237.49491,735.71027 c -8.22575,-0.17593 -17.6086,-2.90374 -27.16241,-7.89672 l -1.77515,-0.92773 12.47479,-1.46829 c 18.24706,-2.14769 23.48183,-2.69586 23.50715,-2.46164 0.032,0.29647 -1.1538,10.97608 -1.29573,11.66925 l -0.12325,0.602 -2.54037,0.24742 c -1.3972,0.13607 -2.78547,0.24214 -3.08503,0.23574 z"
         style="fill:#806000;fill-opacity:1;stroke:none;stroke-width:5;stroke-linecap:round;stroke-linejoin:round;stroke-miterlimit:4;stroke-dasharray:none;stroke-opacity:1" />
      <path
         inkscape:connector-curvature="0"
         id="path4638"
         d="m 211.13958,726.356 -0.009,-0.0831 11.93634,-1.29709 c 6.56502,-0.71304 12.23944,-1.33258 12.60985,-1.37627 l 0.67352,-0.0792 0.003,0.033 0.003,0.033 -1.45111,0.16443 c -0.7981,0.0905 -2.46273,0.27876 -3.69916,0.41841 -1.23645,0.13935 -3.2974,0.37254 -4.57996,0.51738 -1.28255,0.14506 -4.91135,0.55456 -8.06393,0.91047 -3.15261,0.35582 -6.11063,0.69091 -6.57337,0.74456 l -0.84137,0.0974 -0.009,-0.0831 z"
         style="fill:#806000;fill-opacity:1;stroke:none;stroke-width:5;stroke-linecap:round;stroke-linejoin:round;stroke-miterlimit:4;stroke-dasharray:none;stroke-opacity:1" />
      <path
         inkscape:connector-curvature="0"
         id="path4640"
         d="m 227.24048,724.62325 c 0.0261,-0.005 0.0663,-0.009 0.0895,-0.009 0.0231,-3.5e-4 0.002,0.004 -0.0474,0.009 -0.0492,0.005 -0.0683,0.005 -0.0421,2.5e-4 z"
         style="fill:#806000;fill-opacity:1;stroke:none;stroke-width:5;stroke-linecap:round;stroke-linejoin:round;stroke-miterlimit:4;stroke-dasharray:none;stroke-opacity:1" />
      <path
         inkscape:connector-curvature="0"
         id="path4642"
         d="m 227.25159,724.62214 c 0.0198,-0.005 0.0502,-0.007 0.0671,-0.007 0.0171,7.1e-4 7.1e-4,0.004 -0.036,0.008 -0.037,0.003 -0.0509,0.003 -0.0311,-0.001 z"
         style="fill:#806000;fill-opacity:1;stroke:none;stroke-width:5;stroke-linecap:round;stroke-linejoin:round;stroke-miterlimit:4;stroke-dasharray:none;stroke-opacity:1" />
      <path
         inkscape:connector-curvature="0"
         id="path4644"
         d="m 226.23892,734.18819 c -4.80335,-1.2323 -9.67645,-3.10325 -14.56576,-5.59228 l -0.30849,-0.15703 -0.10735,-0.99337 -0.10735,-0.99336 0.2371,-0.0321 c 0.17252,-0.0237 12.28777,-1.39288 15.55444,-1.75833 0.17053,-0.019 0.27699,-0.0349 0.25074,-0.0369 -0.0337,-0.003 -0.0219,-0.006 0.0442,-0.0105 0.23678,-0.0176 1.97453,-0.20907 4.85536,-0.53568 1.74078,-0.19722 3.41304,-0.3854 3.71614,-0.4183 l 0.55109,-0.0597 0.51515,4.76701 0.51516,4.76701 -5.36853,0.57968 -5.36852,0.57969 -0.41335,-0.10605 v 0 z"
         style="fill:#806000;fill-opacity:1;stroke:none;stroke-width:5;stroke-linecap:round;stroke-linejoin:round;stroke-miterlimit:4;stroke-dasharray:none;stroke-opacity:1" />
      <use
         transform="translate(-6.0146754,-7.4815613)"
         height="100%"
         width="100%"
         y="0"
         x="0"
         xlink:href="#path4644"
         id="use4646" />
      <use
         transform="translate(-0.57971908,-2.6441798)"
         height="100%"
         width="100%"
         y="0"
         x="0"
         xlink:href="#path4644"
         id="use4648" />
      <use
         transform="translate(-6.4002962,-3.6867618)"
         height="100%"
         width="100%"
         y="0"
         x="0"
         xlink:href="#path4644"
         id="use4650" />
      <use
         transform="translate(-2.5695877,-7.3602588)"
         height="100%"
         width="100%"
         y="0"
         x="0"
         xlink:href="#path4644"
         id="use4652" />
      <use
         transform="translate(-1.6337848,-4.9174718)"
         height="100%"
         width="100%"
         y="0"
         x="0"
         xlink:href="#path4644"
         id="use4654" />
      <use
         transform="translate(-0.86685898,-4.3088268)"
         height="100%"
         width="100%"
         y="0"
         x="0"
         xlink:href="#path4644"
         id="use4656" />
      <use
         transform="translate(0.70837192,-6.7532928)"
         height="100%"
         width="100%"
         y="0"
         x="0"
         xlink:href="#path4644"
         id="use4658" />
      <use
         transform="translate(4.3740426,-4.5729078)"
         height="100%"
         width="100%"
         y="0"
         x="0"
         xlink:href="#path4644"
         id="use4660" />
      <use
         transform="translate(4.5503776,-7.6026063)"
         height="100%"
         width="100%"
         y="0"
         x="0"
         xlink:href="#path4644"
         id="use4662" />
      <use
         transform="translate(1.8819856,-1.8602098)"
         height="100%"
         width="100%"
         y="0"
         x="0"
         xlink:href="#path4644"
         id="use4664" />
      <use
         transform="translate(0.51924322,-2.6582298)"
         height="100%"
         width="100%"
         y="0"
         x="0"
         xlink:href="#path4644"
         id="use4666" />
      <use
         transform="translate(0.64201452,-1.5684948)"
         height="100%"
         width="100%"
         y="0"
         x="0"
         xlink:href="#path4644"
         id="use4668" />
      <use
         transform="translate(2.3038206,-1.8336158)"
         height="100%"
         width="100%"
         y="0"
         x="0"
         xlink:href="#path4644"
         id="use4670" />
      <use
         transform="translate(5.4456696,-7.5184351)"
         height="100%"
         width="100%"
         y="0"
         x="0"
         xlink:href="#path4644"
         id="use4672" />
      <use
         transform="translate(3.4545146,-4.3300348)"
         height="100%"
         width="100%"
         y="0"
         x="0"
         xlink:href="#path4644"
         id="use4674" />
      <use
         transform="translate(5.6289566,-6.6842218)"
         height="100%"
         width="100%"
         y="0"
         x="0"
         xlink:href="#path4644"
         id="use4676" />
      <use
         transform="translate(0.61664782,-3.5405028)"
         height="100%"
         width="100%"
         y="0"
         x="0"
         xlink:href="#path4644"
         id="use4678" />
      <use
         transform="translate(-0.61726648,-5.6115748)"
         height="100%"
         width="100%"
         y="0"
         x="0"
         xlink:href="#path4644"
         id="use4680" />
      <use
         transform="translate(1.5487976,-2.9987658)"
         height="100%"
         width="100%"
         y="0"
         x="0"
         xlink:href="#path4644"
         id="use4682" />
      <use
         transform="translate(5.3608086,-6.0541528)"
         height="100%"
         width="100%"
         y="0"
         x="0"
         xlink:href="#path4644"
         id="use4684" />
      <use
         transform="translate(1.8961576,-3.9857378)"
         height="100%"
         width="100%"
         y="0"
         x="0"
         xlink:href="#path4644"
         id="use4686" />
      <use
         transform="translate(4.9248316,-3.6594978)"
         height="100%"
         width="100%"
         y="0"
         x="0"
         xlink:href="#path4644"
         id="use4688" />
      <use
         transform="translate(7.2927386,-6.9377038)"
         height="100%"
         width="100%"
         y="0"
         x="0"
         xlink:href="#path4644"
         id="use4690" />
      <use
         transform="translate(3.5645076,-8.4928308)"
         height="100%"
         width="100%"
         y="0"
         x="0"
         xlink:href="#path4644"
         id="use4692" />
      <use
         transform="translate(1.8829376,-7.9633105)"
         height="100%"
         width="100%"
         y="0"
         x="0"
         xlink:href="#path4644"
         id="use4694" />
      <use
         transform="translate(1.0084486,-4.8921958)"
         height="100%"
         width="100%"
         y="0"
         x="0"
         xlink:href="#path4644"
         id="use4696" />
      <use
         transform="translate(2.8545216,-5.8063368)"
         height="100%"
         width="100%"
         y="0"
         x="0"
         xlink:href="#path4644"
         id="use4698" />
      <use
         transform="translate(4.8422466,-8.4114921)"
         height="100%"
         width="100%"
         y="0"
         x="0"
         xlink:href="#path4644"
         id="use4700" />
      <use
         transform="translate(8.8841936,-7.9971664)"
         height="100%"
         width="100%"
         y="0"
         x="0"
         xlink:href="#path4644"
         id="use4702" />
      <use
         transform="translate(7.6865886,-5.1888548)"
         height="100%"
         width="100%"
         y="0"
         x="0"
         xlink:href="#path4644"
         id="use4704" />
      <use
         transform="translate(4.8707266,-6.5117488)"
         height="100%"
         width="100%"
         y="0"
         x="0"
         xlink:href="#path4644"
         id="use4706" />
      <use
         transform="translate(10.849331,-6.7821638)"
         height="100%"
         width="100%"
         y="0"
         x="0"
         xlink:href="#path4644"
         id="use4708" />
      <use
         transform="translate(9.0176706,-5.1876188)"
         height="100%"
         width="100%"
         y="0"
         x="0"
         xlink:href="#path4644"
         id="use4710" />
      <use
         transform="translate(4.8040646,-6.6466168)"
         height="100%"
         width="100%"
         y="0"
         x="0"
         xlink:href="#path4644"
         id="use4712" />
      <use
         transform="translate(5.2584676,-5.9517718)"
         height="100%"
         width="100%"
         y="0"
         x="0"
         xlink:href="#path4644"
         id="use4714" />
      <use
         transform="translate(6.8696786,-3.6117578)"
         height="100%"
         width="100%"
         y="0"
         x="0"
         xlink:href="#path4644"
         id="use4716" />
      <use
         transform="translate(6.5249186,-7.1163457)"
         height="100%"
         width="100%"
         y="0"
         x="0"
         xlink:href="#path4644"
         id="use4718" />
      <use
         transform="translate(5.6441706,-7.7575484)"
         height="100%"
         width="100%"
         y="0"
         x="0"
         xlink:href="#path4644"
         id="use4720" />
      <use
         transform="translate(12.513391,-8.4680904)"
         height="100%"
         width="100%"
         y="0"
         x="0"
         xlink:href="#path4644"
         id="use4722" />
      <use
         transform="translate(9.8055146,-9.8933973)"
         height="100%"
         width="100%"
         y="0"
         x="0"
         xlink:href="#path4644"
         id="use4724" />
      <use
         transform="translate(11.020115,-4.8400988)"
         height="100%"
         width="100%"
         y="0"
         x="0"
         xlink:href="#path4644"
         id="use4726" />
      <use
         transform="translate(7.6988966,-8.4104313)"
         height="100%"
         width="100%"
         y="0"
         x="0"
         xlink:href="#path4644"
         id="use4728" />
      <use
         transform="translate(12.763052,-7.6154709)"
         height="100%"
         width="100%"
         y="0"
         x="0"
         xlink:href="#path4644"
         id="use4730" />
      <use
         transform="translate(10.462002,-9.3493746)"
         height="100%"
         width="100%"
         y="0"
         x="0"
         xlink:href="#path4644"
         id="use4732" />
      <use
         transform="translate(5.8434016,-5.1825198)"
         height="100%"
         width="100%"
         y="0"
         x="0"
         xlink:href="#path4644"
         id="use4734" />
      <use
         transform="translate(5.9207336,-2.9597298)"
         height="100%"
         width="100%"
         y="0"
         x="0"
         xlink:href="#path4644"
         id="use4736" />
      <use
         transform="translate(8.5371786,-5.0974838)"
         height="100%"
         width="100%"
         y="0"
         x="0"
         xlink:href="#path4644"
         id="use4738" />
      <use
         transform="translate(8.3090346,-7.1020597)"
         height="100%"
         width="100%"
         y="0"
         x="0"
         xlink:href="#path4644"
         id="use4740" />
      <use
         transform="translate(2.6914736,-4.6215538)"
         height="100%"
         width="100%"
         y="0"
         x="0"
         xlink:href="#path4644"
         id="use4742" />
      <use
         transform="translate(4.6776336,-6.0858358)"
         height="100%"
         width="100%"
         y="0"
         x="0"
         xlink:href="#path4644"
         id="use4744" />
      <use
         transform="translate(5.2064636,-9.1703409)"
         height="100%"
         width="100%"
         y="0"
         x="0"
         xlink:href="#path4644"
         id="use4746" />
      <use
         transform="translate(6.1990486,-6.4362918)"
         height="100%"
         width="100%"
         y="0"
         x="0"
         xlink:href="#path4644"
         id="use4748" />
      <path
         inkscape:connector-curvature="0"
         id="path4774"
         d="m 217.68812,731.4677 c -5.40042,-2.18857 -10.53669,-4.98993 -15.43554,-8.41864 -0.40721,-0.28501 -1.14119,-0.81001 -1.29506,-0.92632 l -0.0505,-0.0381 -0.002,-0.0463 -0.002,-0.0463 0.24941,0.18132 c 0.88088,0.64039 1.84895,1.31297 2.79313,1.9406 0.79462,0.52821 1.35277,0.88482 2.88377,1.84247 l 1.06048,0.66335 0.383,-0.0414 0.383,-0.0414 0.16015,0.0718 0.16017,0.0718 -0.42003,0.0476 c -0.23099,0.0264 -0.41964,0.0504 -0.41923,0.0532 0.001,0.008 3.33692,1.72443 3.93529,2.025 1.89969,0.95423 3.83625,1.83291 5.67073,2.573 0.17318,0.0698 0.33357,0.13509 0.35643,0.14495 l 0.0415,0.0179 -0.10574,0.0114 -0.10575,0.0114 -0.24034,-0.0974 v 2e-5 z"
         style="fill:#806000;fill-opacity:1;stroke:none;stroke-width:5;stroke-linecap:round;stroke-linejoin:round;stroke-miterlimit:4;stroke-dasharray:none;stroke-opacity:1" />
    </g>
  </g>
  <g
     inkscape:groupmode="layer"
     id="layer4"
     inkscape:label="rope"
     style="display:inline">
    <path
       style="fill:#006fef;fill-opacity:1;fill-rule:evenodd;stroke:#00008b;stroke-width:5.85460281;stroke-linecap:butt;stroke-linejoin:miter;stroke-miterlimit:4;stroke-dasharray:none;stroke-opacity:1"
       d="M 463.98588,374.76107 C 401.9779,365.28516 327.1584,342.73427 307.48326,433.386 c -11.11477,51.21042 5.74744,211.9205 -2.30194,270.64296 -5.84645,42.65146 -29.13468,179.81906 -44.92435,225.92287 -7.66279,22.3744 -38.60223,54.0264 -53.7458,69.27063 -2.37231,2.38804 -9.00916,9.88624 -6.28746,7.91154 52.71843,-38.24883 282.90317,31.2153 300.22608,15.8231 6.13598,-5.4521 -6.96393,-16.4586 -11.27273,-23.46323 -16.26749,-26.44532 -14.62017,-37.85603 -21.73643,-52.48763 -26.1438,-53.75394 -27.45183,-84.4799 -6.40778,-149.73585 11.32384,-35.11437 3.48635,-87.51463 10.73336,-117.12378 17.27626,-70.58566 55.00131,-281.68599 -7.78033,-305.38554 z"
       id="path4269"
       inkscape:connector-curvature="0"
       sodipodi:nodetypes="cssssssssssc" />
    <path
       sodipodi:type="star"
       style="fill:#ffff00;fill-opacity:1;stroke:#545400;stroke-width:7.95943308;stroke-miterlimit:4;stroke-dasharray:none;stroke-opacity:1"
       id="path4273"
       sodipodi:sides="5"
       sodipodi:cx="277.14285"
       sodipodi:cy="9.5050621"
       sodipodi:r1="55.475681"
       sodipodi:r2="27.737841"
       sodipodi:arg1="1.3633001"
       sodipodi:arg2="1.9916186"
       inkscape:flatsided="false"
       inkscape:rounded="0"
       inkscape:randomized="0"
       d="m 288.57142,63.790778 -22.75978,-28.967909 -36.76595,2.32662 20.51696,-30.5974216 -13.57405,-34.2475264 35.43997,10.057663 28.37672,-23.492755 1.38614,36.8133991 31.11183,19.7282049 -34.58328,12.694269 z"
       inkscape:transform-center-x="-2.1942849"
       inkscape:transform-center-y="1.1339491"
       transform="matrix(0.38901656,0,0,0.39160137,245.57573,406.51541)" />
    <path
       sodipodi:type="star"
       style="fill:#ffff00;fill-opacity:1;stroke:#545400;stroke-width:4.53252268;stroke-miterlimit:4;stroke-dasharray:none;stroke-opacity:1"
       id="path4275"
       sodipodi:sides="5"
       sodipodi:cx="488.57144"
       sodipodi:cy="89.505058"
       sodipodi:r1="62.662037"
       sodipodi:r2="31.331017"
       sodipodi:arg1="0.81764505"
       sodipodi:arg2="1.4459636"
       inkscape:flatsided="false"
       inkscape:rounded="0"
       inkscape:randomized="0"
       d="m 531.42859,135.21935 -38.95616,-14.62708 -34.13427,23.79885 1.87305,-41.56953 -33.18211,-25.10937 40.11377,-11.064304 13.6266,-39.31729 22.91861,34.731405 41.60382,0.809953 -25.94929,32.529494 z"
       inkscape:transform-center-x="2.6301271"
       inkscape:transform-center-y="-3.9767809"
       transform="matrix(0.68302885,0,0,0.68779267,108.34091,378.12907)" />
    <path
       sodipodi:type="star"
       style="fill:#ffff00;fill-opacity:1;stroke:#545400;stroke-width:10;stroke-miterlimit:4;stroke-dasharray:none;stroke-opacity:1"
       id="path4277"
       sodipodi:sides="5"
       sodipodi:cx="285.71429"
       sodipodi:cy="260.93362"
       sodipodi:r1="107.36168"
       sodipodi:r2="53.68084"
       sodipodi:arg1="1.1309537"
       sodipodi:arg2="1.7592723"
       inkscape:flatsided="false"
       inkscape:rounded="0"
       inkscape:randomized="0"
       d="m 331.42858,358.07648 -55.77204,-44.41265 -68.2041,20.76546 25.00444,-66.76663 -40.82536,-58.44907 71.22563,3.14861 42.97264,-56.88898 19.01543,68.71257 67.38391,23.28975 -59.47345,39.3181 z"
       inkscape:transform-center-x="-3.8621739"
       inkscape:transform-center-y="-2.5839465"
       transform="matrix(0.38901656,0,0,0.39160137,245.57573,406.51541)" />
    <path
       sodipodi:type="star"
       style="fill:#ffff00;fill-opacity:1;stroke:#545400;stroke-width:10;stroke-miterlimit:4;stroke-dasharray:none;stroke-opacity:1"
       id="path4279"
       sodipodi:sides="5"
       sodipodi:cx="368.57144"
       sodipodi:cy="615.21936"
       sodipodi:r1="84.418777"
       sodipodi:r2="42.209393"
       sodipodi:arg1="1.152572"
       sodipodi:arg2="1.7808905"
       inkscape:flatsided="false"
       inkscape:rounded="0"
       inkscape:randomized="0"
       d="m 402.85715,692.36221 -43.08856,-35.86159 -53.96949,15.16484 20.7913,-52.0615 -31.10011,-46.64184 55.93829,3.68581 34.74857,-43.99109 13.78047,54.33947 52.5759,19.45385 -47.4215,29.89782 z"
       inkscape:transform-center-x="-3.3802934"
       inkscape:transform-center-y="-1.6836832"
       transform="matrix(0.38901656,0,0,0.39160137,245.57573,406.51541)" />
    <path
       sodipodi:type="star"
       style="fill:#ffff00;fill-opacity:1;stroke:#545400;stroke-width:10;stroke-miterlimit:4;stroke-dasharray:none;stroke-opacity:1"
       id="path4281"
       sodipodi:sides="5"
       sodipodi:cx="471.42856"
       sodipodi:cy="340.93362"
       sodipodi:r1="74.778587"
       sodipodi:r2="37.389294"
       sodipodi:arg1="0.75837771"
       sodipodi:arg2="1.3866962"
       inkscape:flatsided="false"
       inkscape:rounded="0"
       inkscape:randomized="0"
       d="m 525.71427,392.3622 -47.44115,-14.67111 -38.98083,30.76362 -0.70708,-49.65284 -41.30368,-27.56649 47.00417,-16.01604 13.45375,-47.80065 29.75724,39.75439 49.61856,-1.97594 -28.61318,40.58561 z"
       inkscape:transform-center-x="2.6283036"
       inkscape:transform-center-y="-1.8620601"
       transform="matrix(0.38901656,0,0,0.39160137,245.57573,406.51541)" />
    <path
       sodipodi:type="star"
       style="fill:#ffff00;fill-opacity:1;stroke:#545400;stroke-width:10;stroke-miterlimit:4;stroke-dasharray:none;stroke-opacity:1"
       id="path4283"
       sodipodi:sides="5"
       sodipodi:cx="231.42857"
       sodipodi:cy="506.64792"
       sodipodi:r1="64.206299"
       sodipodi:r2="32.103149"
       sodipodi:arg1="1.2068174"
       sodipodi:arg2="1.8351359"
       inkscape:flatsided="false"
       inkscape:rounded="0"
       inkscape:randomized="0"
       d="m 254.28571,566.64792 -31.24479,-29.01195 -41.61249,9.2914 17.93683,-38.68074 -21.69562,-36.70464 42.33036,5.10593 28.20387,-31.97611 8.22478,41.83638 39.12656,16.94232 -37.24717,20.75037 z"
       inkscape:transform-center-x="-3.2208552"
       inkscape:transform-center-y="-0.61390223"
       transform="matrix(0.38901656,0,0,0.39160137,245.57573,406.51541)" />
    <path
       sodipodi:type="star"
       style="fill:#ffff00;fill-opacity:1;stroke:#545400;stroke-width:10;stroke-miterlimit:4;stroke-dasharray:none;stroke-opacity:1"
       id="path4285"
       sodipodi:sides="5"
       sodipodi:cx="274.28574"
       sodipodi:cy="812.3623"
       sodipodi:r1="81.816116"
       sodipodi:r2="40.908058"
       sodipodi:arg1="1.1383886"
       sodipodi:arg2="1.7667071"
       inkscape:flatsided="false"
       inkscape:rounded="0"
       inkscape:randomized="0"
       d="m 308.57145,886.64802 -42.24888,-34.1602 -52.09188,15.43768 19.43266,-50.73714 -30.77938,-44.77182 54.25891,2.80291 33.06918,-43.10818 14.1012,52.46944 51.21725,18.1295 -45.54389,29.62498 z"
       inkscape:transform-center-x="-3.0578519"
       inkscape:transform-center-y="-1.8532007"
       transform="matrix(0.38901656,0,0,0.39160137,245.57573,406.51541)" />
    <path
       sodipodi:type="star"
       style="fill:#ffff00;fill-opacity:1;stroke:#545400;stroke-width:10;stroke-miterlimit:4;stroke-dasharray:none;stroke-opacity:1"
       id="path4287"
       sodipodi:sides="5"
       sodipodi:cx="411.42859"
       sodipodi:cy="1012.3622"
       sodipodi:r1="92.140091"
       sodipodi:r2="46.070045"
       sodipodi:arg1="1.4464413"
       sodipodi:arg2="2.0747599"
       inkscape:flatsided="false"
       inkscape:rounded="0"
       inkscape:randomized="0"
       d="m 422.85716,1103.7908 -33.6758,-51.0862 -61.17489,-1.2202 38.17944,-47.8141 -17.7436,-58.55784 57.27199,21.53544 50.20874,-34.97053 -2.78339,61.12371 48.7743,36.94482 -58.99222,16.2411 z"
       inkscape:transform-center-x="-2.1942847"
       inkscape:transform-center-y="3.3376791"
       transform="matrix(0.38901656,0,0,0.39160137,245.57573,406.51541)" />
    <path
       sodipodi:type="star"
       style="fill:#ffff00;fill-opacity:1;stroke:#545400;stroke-width:10;stroke-miterlimit:4;stroke-dasharray:none;stroke-opacity:1"
       id="path4289"
       sodipodi:sides="5"
       sodipodi:cx="214.28572"
       sodipodi:cy="1115.2194"
       sodipodi:r1="61.345459"
       sodipodi:r2="30.672729"
       sodipodi:arg1="1.0863184"
       sodipodi:arg2="1.7146369"
       inkscape:flatsided="false"
       inkscape:rounded="0"
       inkscape:randomized="0"
       d="m 242.85715,1169.5051 -32.96821,-23.9298 -38.40294,13.5923 12.5708,-38.7493 -24.79419,-32.3231 40.7374,-0.019 23.07928,-33.5691 12.60629,38.7378 39.05798,11.5763 -32.94628,23.96 z"
       inkscape:transform-center-x="-1.688366"
       inkscape:transform-center-y="-1.9963896"
       transform="matrix(0.38901656,0,0,0.39160137,242.43757,385.80354)" />
    <path
       sodipodi:type="star"
       style="fill:#ffff00;fill-opacity:1;stroke:#545400;stroke-width:10;stroke-miterlimit:4;stroke-dasharray:none;stroke-opacity:1"
       id="path4291"
       sodipodi:sides="5"
       sodipodi:cx="351.42859"
       sodipodi:cy="1280.9336"
       sodipodi:r1="102.89682"
       sodipodi:r2="51.44841"
       sodipodi:arg1="1.598567"
       sodipodi:arg2="2.2268855"
       inkscape:flatsided="false"
       inkscape:rounded="0"
       inkscape:randomized="0"
       d="m 348.57144,1383.7907 -28.52755,-62.0902 -67.32117,-11.6996 50.23584,-46.3183 -9.6764,-67.6416 59.575,33.464 61.34082,-30.1052 -13.41646,67.0001 47.58712,49.0356 -67.86683,7.9444 z"
       inkscape:transform-center-x="0.54856861"
       inkscape:transform-center-y="5.580915"
       transform="matrix(0.38901656,0,0,0.39160137,245.57573,406.51541)" />
    <path
       sodipodi:type="star"
       style="fill:#ffff00;fill-opacity:1;stroke:#545400;stroke-width:10;stroke-miterlimit:4;stroke-dasharray:none;stroke-opacity:1"
       id="path4293"
       sodipodi:sides="5"
       sodipodi:cx="154.28571"
       sodipodi:cy="1432.3622"
       sodipodi:r1="42.474483"
       sodipodi:r2="21.237242"
       sodipodi:arg1="1.2277724"
       sodipodi:arg2="1.8560909"
       inkscape:flatsided="false"
       inkscape:rounded="0"
       inkscape:randomized="0"
       d="m 168.57142,1472.3622 -20.26273,-19.6212 -27.65072,5.5684 12.39934,-25.3343 -13.8404,-24.5767 27.92594,3.9638 19.09688,-20.7576 4.85984,27.784 25.64293,11.7477 -24.9224,13.2078 z"
       inkscape:transform-center-x="-2.2951719"
       inkscape:transform-center-y="-0.23536041"
       transform="matrix(0.38901656,0,0,0.39160137,245.57573,406.51541)" />
    <path
       sodipodi:type="star"
       style="fill:#ffff00;fill-opacity:1;stroke:#545400;stroke-width:10;stroke-miterlimit:4;stroke-dasharray:none;stroke-opacity:1"
       id="path4295"
       sodipodi:sides="5"
       sodipodi:cx="388.57144"
       sodipodi:cy="1629.5051"
       sodipodi:r1="28.571428"
       sodipodi:r2="14.285714"
       sodipodi:arg1="0.92729522"
       sodipodi:arg2="1.5556137"
       inkscape:flatsided="false"
       inkscape:rounded="0"
       inkscape:randomized="0"
       d="m 405.7143,1652.3623 -16.92597,-8.5731 -16.65789,9.083 2.92307,-18.7468 -13.78602,-13.0358 18.73252,-3.013 8.13766,-17.1396 8.65427,16.8846 18.81537,2.4429 -13.38389,13.4484 z"
       inkscape:transform-center-x="0.083282599"
       inkscape:transform-center-y="-1.6157704"
       transform="matrix(0.38901656,0,0,0.39160137,228.00203,220.10864)" />
    <path
       sodipodi:type="star"
       style="fill:#ffff00;fill-opacity:1;stroke:#545400;stroke-width:10;stroke-miterlimit:4;stroke-dasharray:none;stroke-opacity:1"
       id="path4297"
       sodipodi:sides="5"
       sodipodi:cx="437.14285"
       sodipodi:cy="780.93365"
       sodipodi:r1="36.365494"
       sodipodi:r2="18.182747"
       sodipodi:arg1="0.78539816"
       sodipodi:arg2="1.4137167"
       inkscape:flatsided="false"
       inkscape:rounded="0"
       inkscape:randomized="0"
       d="m 462.85714,806.64794 -22.86988,-7.7554 -19.354,14.44301 0.30865,-24.1471 -19.71683,-13.94361 23.06063,-7.16833 7.16833,-23.06063 13.94361,19.71683 24.14709,-0.30864 -14.443,19.35399 z"
       inkscape:transform-center-x="1.0922493"
       inkscape:transform-center-y="-1.0922506"
       transform="matrix(0.38901656,0,0,0.39160137,245.57573,406.51541)" />
    <path
       sodipodi:type="star"
       style="fill:#ffff00;fill-opacity:1;stroke:#545400;stroke-width:10;stroke-miterlimit:4;stroke-dasharray:none;stroke-opacity:1"
       id="path4299"
       sodipodi:sides="5"
       sodipodi:cx="482.85715"
       sodipodi:cy="503.79077"
       sodipodi:r1="40.607632"
       sodipodi:r2="20.303816"
       sodipodi:arg1="0.88506682"
       sodipodi:arg2="1.5133853"
       inkscape:flatsided="false"
       inkscape:rounded="0"
       inkscape:randomized="0"
       d="m 508.57143,535.21934 -24.54926,-11.1582 -23.10922,13.89733 3.02595,-26.79581 L 443.5806,493.479 470,488.07649 l 10.5271,-24.82645 13.30215,23.45688 26.8644,2.34007 -18.19823,19.89967 z"
       inkscape:transform-center-x="0.44736584"
       inkscape:transform-center-y="-1.9798566"
       transform="matrix(0.38901656,0,0,0.39160137,245.57573,406.51541)" />
    <path
       sodipodi:type="star"
       style="fill:#ffff00;fill-opacity:1;stroke:#545400;stroke-width:10;stroke-miterlimit:4;stroke-dasharray:none;stroke-opacity:1"
       id="path4303"
       sodipodi:sides="5"
       sodipodi:cx="285.71429"
       sodipodi:cy="1478.0765"
       sodipodi:r1="78.817795"
       sodipodi:r2="39.408897"
       sodipodi:arg1="0.81103357"
       sodipodi:arg2="1.4393521"
       inkscape:flatsided="false"
       inkscape:rounded="0"
       inkscape:randomized="0"
       d="m 340.00001,1535.2194 -49.12055,-18.0739 -42.73604,30.2179 2.01023,-52.3015 -41.94515,-31.3066 50.36294,-14.2502 16.81252,-49.5664 29.11577,43.4944 52.33586,0.6728 -32.3684,41.1312 z"
       inkscape:transform-center-x="1.9834285"
       inkscape:transform-center-y="-2.7496687"
       transform="matrix(0.38901656,0,0,0.39160137,305.82842,398.35619)" />
    <path
       sodipodi:type="star"
       style="fill:#ffff00;fill-opacity:1;stroke:#545400;stroke-width:10;stroke-miterlimit:4;stroke-dasharray:none;stroke-opacity:1"
       id="path4305"
       sodipodi:sides="5"
       sodipodi:cx="411.42856"
       sodipodi:cy="1746.6479"
       sodipodi:r1="78.45446"
       sodipodi:r2="39.22723"
       sodipodi:arg1="1.3876855"
       sodipodi:arg2="2.016004"
       inkscape:flatsided="false"
       inkscape:rounded="0"
       inkscape:randomized="0"
       d="m 425.71427,1823.7908 -31.17873,-41.7394 -52.05967,2.0215 30.06181,-42.5509 -18.00994,-48.887 49.75796,15.4415 40.92891,-32.2354 0.69029,52.0944 43.30541,28.9644 -49.33134,16.7545 z"
       inkscape:transform-center-x="-2.7428526"
       inkscape:transform-center-y="1.9683728"
       transform="matrix(0.38901656,0,0,0.39160137,140.76115,219.48101)" />
    <path
       sodipodi:type="star"
       style="display:inline;fill:#ffff00;fill-opacity:1;stroke:#545400;stroke-width:7.95943308;stroke-miterlimit:4;stroke-dasharray:none;stroke-opacity:1"
       id="path4273-0"
       sodipodi:sides="5"
       sodipodi:cx="277.14285"
       sodipodi:cy="9.5050621"
       sodipodi:r1="55.475681"
       sodipodi:r2="27.737841"
       sodipodi:arg1="1.3633001"
       sodipodi:arg2="1.9916186"
       inkscape:flatsided="false"
       inkscape:rounded="0"
       inkscape:randomized="0"
       d="m 288.57142,63.790778 -22.75978,-28.967909 -36.76595,2.32662 20.51696,-30.5974216 -13.57405,-34.2475264 35.43997,10.057663 28.37672,-23.492755 1.38614,36.8133991 31.11183,19.7282049 -34.58328,12.694269 z"
       inkscape:transform-center-x="-2.1942849"
       inkscape:transform-center-y="1.1339491"
       transform="matrix(0.38901656,0,0,0.39160137,323.47222,249.66269)" />
  </g>
  <g
     inkscape:groupmode="layer"
     id="layer13"
     inkscape:label="staff"
     style="display:inline">
    <path
       inkscape:connector-curvature="0"
       style="display:inline;fill:#ff0000;fill-opacity:1;stroke:#860000;stroke-width:4.13223553;stroke-linecap:butt;stroke-linejoin:miter;stroke-miterlimit:4;stroke-dasharray:none;stroke-opacity:1"
       d="m 618.19096,457.58989 c -27.51053,-3.31333 -48.6324,17.19567 -52.0135,45.2706 -1.14978,9.72831 0.45927,19.57539 4.6362,28.37283 0.006,0.003 0.0117,0.004 0.0175,0.007 0.0411,-0.0544 0.0813,-0.11263 0.12207,-0.16494 0.47247,-0.6069 0.39588,0.15729 0.37191,0.36576 0.0255,-0.003 0.0412,-0.007 0.0675,-0.0101 0.46815,-0.0551 0.74286,0.58028 1.10682,0.87983 0.63479,0.52246 0.97428,0.80779 1.26266,1.05749 0.17831,-0.15776 0.50567,-0.24328 1.15738,-0.32208 0.23843,-0.0288 0.44379,0.18322 0.65994,0.28789 0.46604,0.22563 0.86417,0.61324 1.26664,0.9318 0.25701,0.21698 0.49066,0.45898 0.72257,0.70261 0.23387,-0.35616 0.915,-0.61374 1.29494,-0.62887 0.25766,-0.0102 0.49333,0.0751 0.73177,0.14884 0.90062,0.0728 1.48659,0.48355 2.09012,1.11485 0.27121,0.311 0.44122,0.66008 0.62363,1.02682 0.0525,0.10555 0.12225,0.20345 0.15922,0.31538 0.037,0.11209 0.12988,0.52389 0.19115,0.7927 0.0983,0.0555 0.18945,0.11812 0.25334,0.21016 0.32777,0.47221 0.29652,0.89948 0.13051,1.30276 0.0244,0.0145 0.0603,0.0348 0.0799,0.0464 0.11715,0.10066 0.22394,0.21497 0.35166,0.30184 0.0429,0.0292 0.1,0.0266 0.15013,0.0396 0.18143,0.12523 0.37337,0.23749 0.54472,0.3762 0.44281,0.35838 0.8234,0.81746 1.20057,1.24162 0.42789,0.36376 0.76783,0.81459 1.15396,1.21765 0.12686,0.13242 0.28634,0.23043 0.41476,0.36134 0.12164,0.12399 0.23294,0.25675 0.3496,0.38542 0.58798,0.43644 1.08591,1.05538 1.31635,1.75858 0.0537,0.16355 0.0784,0.33592 0.11741,0.50357 0.12235,0.29613 0.24654,0.60066 0.3939,0.88578 0.033,0.064 0.0959,0.11037 0.12489,0.17633 0.12208,0.27816 0.23106,0.64101 0.32623,0.94389 0.31466,0.753 0.48698,1.57961 0.87349,2.30006 0.12359,0.094 0.19878,0.20511 0.23781,0.32565 0.0885,0.0864 0.17805,0.17168 0.2632,0.26084 0.10657,0.0812 0.25791,0.12952 0.34053,0.22865 0.1257,-0.0118 0.24998,-0.0113 0.37125,0.02 0.10666,0.0275 0.42581,0.58586 0.5328,0.76679 0.22071,0.31193 0.2779,0.69824 0.4515,1.03084 0.039,0.0748 0.11689,0.12239 0.168,0.1895 0.0934,0.1227 0.18511,0.24723 0.26491,0.37921 0.1245,0.20593 0.31857,0.60155 0.43836,0.84164 0.25137,0.36328 0.45644,0.65137 0.45579,0.98186 4.99329,2.51809 10.36744,4.16705 15.90123,4.87897 27.51018,3.31373 52.55304,-16.75877 55.93495,-44.83329 3.382,-28.07513 -6.8121,-52.64964 -34.32293,-55.96302 -4.62582,1.33442 -9.23052,2.47879 -13.28739,-1.30724 z m -42.79902,76.36656 c 0.0306,0.11056 0.055,0.22361 0.0834,0.335 -0.0194,-0.10969 -0.0714,-0.2271 -0.0834,-0.335 z m 3.95388,2.03394 c 0.0423,-0.0585 -0.16067,0.22096 -0.26032,0.35826 0.006,-0.003 0.013,-0.005 0.0193,-0.008 0.0254,-0.0476 0.17419,-0.25805 0.24099,-0.35021 z m 0.35845,0.56374 c -0.13927,-0.0349 -0.30365,-0.0223 -0.45568,-0.0349 0.007,0.005 -0.003,-0.003 0.003,0.003 0.25943,0.30826 0.54615,0.58834 0.82365,0.87767 0.0341,-6.1e-4 0.12045,-0.004 0.1324,-0.005 0.0126,-0.002 0.006,-0.0297 0.019,-0.0321 0.0518,-0.01 0.10494,-0.0137 0.15734,-0.0202 -0.0713,-0.1227 -0.14518,-0.24461 -0.21746,-0.36232 -0.19595,-0.27018 0.2329,0.30901 -0.25297,-0.23966 -0.016,-0.0181 0.003,-0.0535 -0.0121,-0.0717 -0.0535,-0.0607 -0.12166,-0.095 -0.19784,-0.11406 z m -1.20594,0.53978 0.003,0.0132 c 0.0151,0.0315 0.0273,0.0511 0.0417,0.0785 -0.005,-0.0191 -0.005,-0.0277 -0.0101,-0.0411 -0.006,-0.0196 -0.0256,-0.0411 -0.0355,-0.0505 z m 5.99315,4.63809 c 0.0108,0.008 0.0109,0.008 0.0212,0.0161 5.3e-4,-0.002 0.31468,0.21791 -0.0212,-0.0161 z m 6.48197,8.72657 c -0.0358,6.2e-4 -0.0935,0.0105 -0.14417,0.0171 0.0302,0.0608 0.0572,0.1224 0.0808,0.18457 0.10464,-0.0193 0.20899,-0.0332 0.31295,-0.0462 -0.0779,-0.0697 -0.17972,-0.15651 -0.24955,-0.1554 z"
       id="path3338"
       sodipodi:nodetypes="ccccccccccccccccccccccccccscccccccccccccccscccsccccccccccccccccccccccccccccccccccccc" />
    <path
       style="display:inline;fill:#a96100;fill-opacity:1;fill-rule:evenodd;stroke:#000000;stroke-width:4.05855513;stroke-linecap:butt;stroke-linejoin:miter;stroke-miterlimit:4;stroke-dasharray:none;stroke-opacity:1"
       clip-path="none"
       d="m 590.52225,511.10203 c -6.47174,-0.78513 -14.43405,-0.18016 -24.7846,2.67954 -4.04596,31.48139 32.38201,25.15907 26.62942,74.10436 l -15.6571,127.16956 23.42359,2.82131 24.54051,-125.36985 c 8.07338,-41.24436 34.46651,-31.84912 39.10576,-63.41227 -45.15419,14.89776 -45.21326,-14.59142 -73.25758,-17.99265 z"
       id="path3340"
       inkscape:connector-curvature="0"
       sodipodi:nodetypes="ccsccscc" />
    <path
       style="display:inline;fill:#ffff00;fill-opacity:1;stroke:none;stroke-width:0;stroke-miterlimit:4;stroke-dasharray:none"
       d="m 358.51654,486.95806 c 0.0758,-0.30273 7.02328,-23.98941 7.28652,-24.84267 0.0502,-0.16264 -2.63711,-2.34376 -10.36994,-8.41667 l -10.43768,-8.19716 13.45078,-0.0343 13.45077,-0.0343 0.13288,-0.36968 c 0.0731,-0.20333 1.4173,-4.0057 2.98715,-8.44971 1.56985,-4.44401 3.17614,-8.98904 3.56952,-10.10002 0.39339,-1.11101 1.07171,-3.03276 1.50737,-4.27055 l 0.79211,-2.25053 0.24663,0.70186 c 0.13564,0.38602 0.56797,1.61085 0.96073,2.72186 1.94929,5.51396 7.39415,20.94399 7.56743,21.44509 l 0.19768,0.57168 13.45928,0.0343 13.45928,0.0343 -10.44696,8.20491 c -5.74582,4.5127 -10.42251,8.2699 -10.39263,8.34935 0.15497,0.41216 7.36286,25.00673 7.36286,25.12338 0,0.0755 -4.98437,-3.18444 -11.07637,-7.24432 -6.092,-4.0599 -11.13945,-7.41914 -11.21656,-7.465 -0.0771,-0.0458 -4.65724,2.92725 -10.17807,6.60689 -5.52083,3.67964 -10.57131,7.04442 -11.22329,7.47729 -1.16072,0.77066 -1.18343,0.77909 -1.08949,0.404 z"
       id="path4179"
       inkscape:connector-curvature="0"
       clip-path="url(#clipPath4306)"
       transform="matrix(-0.26284138,0.14182482,-0.14182482,-0.26284138,780.13106,618.14433)" />
    <path
       style="display:inline;fill:#ffff00;fill-opacity:1;stroke:none;stroke-width:0;stroke-miterlimit:4;stroke-dasharray:none"
       d="m 358.51654,486.95806 c 0.0758,-0.30273 7.02328,-23.98941 7.28652,-24.84267 0.0502,-0.16264 -2.63711,-2.34376 -10.36994,-8.41667 l -10.43768,-8.19716 13.45078,-0.0343 13.45077,-0.0343 0.13288,-0.36968 c 0.0731,-0.20333 1.4173,-4.0057 2.98715,-8.44971 1.56985,-4.44401 3.17614,-8.98904 3.56952,-10.10002 0.39339,-1.11101 1.07171,-3.03276 1.50737,-4.27055 l 0.79211,-2.25053 0.24663,0.70186 c 0.13564,0.38602 0.56797,1.61085 0.96073,2.72186 1.94929,5.51396 7.39415,20.94399 7.56743,21.44509 l 0.19768,0.57168 13.45928,0.0343 13.45928,0.0343 -10.44696,8.20491 c -5.74582,4.5127 -10.42251,8.2699 -10.39263,8.34935 0.15497,0.41216 7.36286,25.00673 7.36286,25.12338 0,0.0755 -4.98437,-3.18444 -11.07637,-7.24432 -6.092,-4.0599 -11.13945,-7.41914 -11.21656,-7.465 -0.0771,-0.0458 -4.65724,2.92725 -10.17807,6.60689 -5.52083,3.67964 -10.57131,7.04442 -11.22329,7.47729 -1.16072,0.77066 -1.18343,0.77909 -1.08949,0.404 z"
       id="path4179-6"
       inkscape:connector-curvature="0"
       clip-path="url(#clipPath4412)"
       transform="matrix(-0.26284138,0.14182482,-0.14182482,-0.26284138,805.15377,621.30423)" />
    <path
       style="display:inline;fill:#ffff00;fill-opacity:1;stroke:none;stroke-width:0;stroke-miterlimit:4;stroke-dasharray:none"
       d="m 358.51654,486.95806 c 0.0758,-0.30273 7.02328,-23.98941 7.28652,-24.84267 0.0502,-0.16264 -2.63711,-2.34376 -10.36994,-8.41667 l -10.43768,-8.19716 13.45078,-0.0343 13.45077,-0.0343 0.13288,-0.36968 c 0.0731,-0.20333 1.4173,-4.0057 2.98715,-8.44971 1.56985,-4.44401 3.17614,-8.98904 3.56952,-10.10002 0.39339,-1.11101 1.07171,-3.03276 1.50737,-4.27055 l 0.79211,-2.25053 0.24663,0.70186 c 0.13564,0.38602 0.56797,1.61085 0.96073,2.72186 1.94929,5.51396 7.39415,20.94399 7.56743,21.44509 l 0.19768,0.57168 13.45928,0.0343 13.45928,0.0343 -10.44696,8.20491 c -5.74582,4.5127 -10.42251,8.2699 -10.39263,8.34935 0.15497,0.41216 7.36286,25.00673 7.36286,25.12338 0,0.0755 -4.98437,-3.18444 -11.07637,-7.24432 -6.092,-4.0599 -11.13945,-7.41914 -11.21656,-7.465 -0.0771,-0.0458 -4.65724,2.92725 -10.17807,6.60689 -5.52083,3.67964 -10.57131,7.04442 -11.22329,7.47729 -1.16072,0.77066 -1.18343,0.77909 -1.08949,0.404 z"
       id="path4179-1"
       inkscape:connector-curvature="0"
       clip-path="url(#clipPath4408)"
       transform="matrix(-0.26284138,0.14182482,-0.14182482,-0.26284138,755.10834,614.98444)" />
    <path
       style="display:inline;fill:none;fill-opacity:1;fill-rule:evenodd;stroke:#331d00;stroke-width:4.05855513;stroke-linecap:butt;stroke-linejoin:miter;stroke-miterlimit:4;stroke-dasharray:none;stroke-opacity:1"
       clip-path="none"
       d="m 590.39568,510.9408 c -6.47174,-0.78514 -14.43405,-0.18018 -24.7846,2.67953 -4.04598,31.48139 32.382,25.15908 26.62941,74.10434 l -15.34552,127.2071 24.04673,2.89636 23.60583,-125.48242 c 7.76985,-41.30261 34.46649,-31.84911 39.10577,-63.41227 -45.1542,14.89776 -45.21329,-14.59142 -73.2576,-17.99264 z"
       id="path3340-7"
       inkscape:connector-curvature="0"
       sodipodi:nodetypes="ccsccscc" />
    <path
       style="fill:#00aa00;fill-opacity:1;fill-rule:evenodd;stroke:#003a00;stroke-width:1.63264716px;stroke-linecap:butt;stroke-linejoin:miter;stroke-opacity:1"
       d="m 613.86325,454.5113 c -11.45684,-0.38391 -20.85294,18.51173 -20.85294,18.51173 l 23.88488,-8.74189 4.72935,15.02667 10.67475,-15.20517 19.66222,13.54567 c 0,0 -3.46582,-15.87928 -11.30921,-19.40274 -8.31587,-3.7357 -19.76883,-30.13534 -23.2554,-21.32803 -1.8184,4.59341 15.00475,18.21495 -3.53365,17.59376 z"
       id="path4259"
       inkscape:connector-curvature="0"
       sodipodi:nodetypes="scccccsss" />
  </g>
  <g
     inkscape:label="hand"
     inkscape:groupmode="layer"
     id="layer1"
     style="display:inline">
    <path
       style="fill:#000000"
       d="m -344.64285,1795.8598 c 0,-0.7281 0.5625,-0.9761 1.25,-0.5512 0.6875,0.4249 1.25,1.0206 1.25,1.3238 0,0.3032 -0.5625,0.5512 -1.25,0.5512 -0.6875,0 -1.25,-0.5957 -1.25,-1.3238 z M 1205.3572,-584.0664 c 0,-0.6875 0.5957,-1.25 1.3237,-1.25 0.7281,0 0.9761,0.5625 0.5513,1.25 -0.4249,0.6875 -1.0207,1.25 -1.3238,1.25 -0.3032,0 -0.5512,-0.5625 -0.5512,-1.25 z m 44.1427,-24.28521 c 1.4869,-1.66937 2.9409,-2.79781 3.231,-2.50766 0.674,0.67397 -3.6942,5.54287 -4.9729,5.54287 -0.529,0 0.2549,-1.36585 1.7419,-3.03521 z m 4.8939,-7.58979 c 0.1422,-1.71875 0.6985,-3.125 1.236,-3.125 0.5375,0 0.9774,1.40625 0.9774,3.125 0,1.71875 -0.5563,3.125 -1.236,3.125 -0.6798,0 -1.1197,-1.40625 -0.9774,-3.125 z m -182.1616,-30.625 c -0.4249,-0.6875 -0.1769,-1.25 0.5512,-1.25 0.728,0 1.3238,0.5625 1.3238,1.25 0,0.6875 -0.248,1.25 -0.5513,1.25 -0.3031,0 -0.8989,-0.5625 -1.3237,-1.25 z m -5.9375,-2.07785 c 0.8593,-0.34676 2.2656,-0.34676 3.125,0 0.8593,0.34676 0.1562,0.63049 -1.5625,0.63049 -1.7188,0 -2.4219,-0.28373 -1.5625,-0.63049 z m 217.8125,-12.92215 c 0,-0.6875 0.5957,-1.25 1.3237,-1.25 0.7281,0 0.9761,0.5625 0.5513,1.25 -0.4249,0.6875 -1.0207,1.25 -1.3238,1.25 -0.3032,0 -0.5512,-0.5625 -0.5512,-1.25 z m 3.75,-1.02317 c 0,-1.51069 2.3715,-3.27199 3.2383,-2.40513 0.3147,0.31463 -0.2852,1.28358 -1.3331,2.15323 -1.188,0.98593 -1.9052,1.08077 -1.9052,0.2519 z m -24.7454,-7.66998 c 1.7246,-2.76171 2.939,-2.41747 1.814,0.51424 -0.4071,1.0609 -1.3251,1.92891 -2.04,1.92891 -0.8227,0 -0.7398,-0.89681 0.226,-2.44315 z m 28.0032,0.6726 c 0.4178,-1.0887 1.3088,-1.97945 1.98,-1.97945 1.643,0 0.6143,2.84098 -1.2544,3.46383 -0.9133,0.30447 -1.1927,-0.26699 -0.7256,-1.48438 z m -24.5078,-3.22945 c 0,-0.6875 0.5625,-1.25 1.25,-1.25 0.6875,0 1.25,0.5625 1.25,1.25 0,0.6875 -0.5625,1.25 -1.25,1.25 -0.6875,0 -1.25,-0.5625 -1.25,-1.25 z m -254.9206,-8.125 c 0,-0.6875 0.8259,-2.34189 1.8353,-3.67641 1.0094,-1.33453 1.8353,-1.86391 1.8353,-1.17642 0,0.6875 -0.8259,2.34189 -1.8353,3.67642 -1.0094,1.33452 -1.8353,1.86391 -1.8353,1.17641 z m 295.1549,-11.95312 c 0.3008,-0.90234 1.2852,-1.88672 2.1875,-2.1875 0.9375,-0.3125 1.4063,0.15625 1.0938,1.09375 -0.3008,0.90233 -1.2851,1.88671 -2.1875,2.1875 -0.9375,0.3125 -1.4063,-0.15625 -1.0938,-1.09375 z m -258.9843,-8.67188 c 2.4626,-1.59149 5.3586,-1.59149 4.375,0 -0.4249,0.6875 -2.005,1.24139 -3.5113,1.23086 -2.2266,-0.0155 -2.3881,-0.24575 -0.8637,-1.23086 z m 267.6973,-2.5 c 0,-1.71875 0.2838,-2.42187 0.6305,-1.5625 0.3468,0.85938 0.3468,2.26563 0,3.125 -0.3467,0.85938 -0.6305,0.15625 -0.6305,-1.5625 z m -19.7061,-20.72724 c 0.4174,-1.08747 0.7588,-2.21247 0.7588,-2.5 0,-0.28751 0.8635,-0.52276 1.919,-0.52276 1.5316,0 1.6488,0.50463 0.581,2.5 -1.5791,2.95038 -4.3617,3.39676 -3.2588,0.52276 z m 33.8838,-10.52276 c 0.4248,-0.6875 1.0206,-1.25 1.3237,-1.25 0.3033,0 0.5513,0.5625 0.5513,1.25 0,0.6875 -0.5958,1.25 -1.3238,1.25 -0.7281,0 -0.9761,-0.5625 -0.5512,-1.25 z m -284.375,-6.10246 c 0,-0.6875 0.5625,-1.59764 1.25,-2.02254 0.6875,-0.4249 1.25,-0.21004 1.25,0.47746 0,0.6875 -0.5625,1.59764 -1.25,2.02254 -0.6875,0.4249 -1.25,0.21004 -1.25,-0.47746 z m 2.5416,-5.85118 c 0.071,-2.01435 4.8481,-7.04145 6.2474,-6.57502 0.733,0.24434 -0.3822,2.08724 -2.4782,4.09532 -2.096,2.00809 -3.7921,3.12395 -3.7692,2.4797 z m 292.4584,-7.89882 c 0,-0.6875 0.5625,-1.59764 1.25,-2.02254 0.6875,-0.4249 1.25,-0.21004 1.25,0.47746 0,0.6875 -0.5625,1.59764 -1.25,2.02254 -0.6875,0.4249 -1.25,0.21004 -1.25,-0.47746 z m -81.702,-660.77254 c -0.3958,-1.0313 -0.1748,-1.875 0.4912,-1.875 0.6659,0 1.2108,0.8437 1.2108,1.875 0,1.0312 -0.2212,1.875 -0.4913,1.875 -0.2702,0 -0.815,-0.8438 -1.2107,-1.875 z m -1612.04805,-0.742 c 0,-0.6232 1.125,-1.133 2.5,-1.133 1.375,0 2.5,0.2156 2.5,0.4792 0,0.2636 -1.125,0.7734 -2.5,1.133 -1.375,0.3596 -2.5,0.1439 -2.5,-0.4792 z"
       id="path3349"
       inkscape:connector-curvature="0" />
    <path
       style="fill:#000000"
       d="m -413.21429,1855.8598 c 0,-0.7281 0.5625,-0.9761 1.25,-0.5512 0.6875,0.4249 1.25,1.0206 1.25,1.3238 0,0.3032 -0.5625,0.5512 -1.25,0.5512 -0.6875,0 -1.25,-0.5957 -1.25,-1.3238 z M 1136.7857,-524.0664 c 0,-0.6875 0.5958,-1.25 1.3238,-1.25 0.7281,0 0.9761,0.5625 0.5512,1.25 -0.4249,0.6875 -1.0206,1.25 -1.3237,1.25 -0.3033,0 -0.5513,-0.5625 -0.5513,-1.25 z m 44.1428,-24.28521 c 1.4868,-1.66937 2.9408,-2.79781 3.231,-2.50766 0.674,0.67397 -3.6943,5.54287 -4.9729,5.54287 -0.529,0 0.2549,-1.36585 1.7419,-3.03521 z m 4.8938,-7.58979 c 0.1423,-1.71875 0.6985,-3.125 1.236,-3.125 0.5375,0 0.9774,1.40625 0.9774,3.125 0,1.71875 -0.5562,3.125 -1.236,3.125 -0.6797,0 -1.1196,-1.40625 -0.9774,-3.125 z m -182.1616,-30.625 c -0.4249,-0.6875 -0.1769,-1.25 0.5513,-1.25 0.728,0 1.3237,0.5625 1.3237,1.25 0,0.6875 -0.248,1.25 -0.5512,1.25 -0.3032,0 -0.8989,-0.5625 -1.3238,-1.25 z m -5.93749,-2.07785 c 0.85937,-0.34676 2.26562,-0.34676 3.12499,0 0.8594,0.34676 0.1563,0.63049 -1.56249,0.63049 -1.71875,0 -2.42188,-0.28373 -1.5625,-0.63049 z m 217.81249,-12.92215 c 0,-0.6875 0.5958,-1.25 1.3238,-1.25 0.7281,0 0.9761,0.5625 0.5512,1.25 -0.4249,0.6875 -1.0206,1.25 -1.3237,1.25 -0.3033,0 -0.5513,-0.5625 -0.5513,-1.25 z m 3.75,-1.02317 c 0,-1.51069 2.3715,-3.27199 3.2384,-2.40513 0.3146,0.31463 -0.2853,1.28358 -1.3331,2.15323 -1.188,0.98593 -1.9053,1.08077 -1.9053,0.2519 z m -24.7454,-7.66998 c 1.7247,-2.76171 2.939,-2.41747 1.814,0.51424 -0.4071,1.0609 -1.3251,1.92891 -2.04,1.92891 -0.8226,0 -0.7397,-0.89681 0.226,-2.44315 z m 28.0033,0.6726 c 0.4177,-1.0887 1.3087,-1.97945 1.98,-1.97945 1.643,0 0.6142,2.84098 -1.2544,3.46383 -0.9134,0.30447 -1.1927,-0.26699 -0.7256,-1.48438 z m -24.5079,-3.22945 c 0,-0.6875 0.5625,-1.25 1.25,-1.25 0.6875,0 1.25,0.5625 1.25,1.25 0,0.6875 -0.5625,1.25 -1.25,1.25 -0.6875,0 -1.25,-0.5625 -1.25,-1.25 z m -254.92049,-8.125 c 0,-0.6875 0.82587,-2.34189 1.83525,-3.67641 1.00937,-1.33453 1.83525,-1.86391 1.83525,-1.17642 0,0.6875 -0.82588,2.34189 -1.83525,3.67642 -1.00937,1.33452 -1.83525,1.86391 -1.83525,1.17641 z m 295.15489,-11.95312 c 0.3007,-0.90234 1.2851,-1.88672 2.1875,-2.1875 0.9375,-0.3125 1.4062,0.15625 1.0937,1.09375 -0.3007,0.90233 -1.2851,1.88671 -2.1875,2.1875 -0.9375,0.3125 -1.4062,-0.15625 -1.0937,-1.09375 z m -258.98439,-8.67188 c 2.46263,-1.59149 5.35863,-1.59149 4.375,0 -0.42487,0.6875 -2.005,1.24139 -3.51125,1.23086 -2.22663,-0.0155 -2.38812,-0.24575 -0.86375,-1.23086 z m 267.69739,-2.5 c 0,-1.71875 0.2837,-2.42187 0.6305,-1.5625 0.3467,0.85938 0.3467,2.26563 0,3.125 -0.3468,0.85938 -0.6305,0.15625 -0.6305,-1.5625 z m -19.7061,-20.72724 c 0.4173,-1.08747 0.7587,-2.21247 0.7587,-2.5 0,-0.28751 0.8635,-0.52276 1.919,-0.52276 1.5316,0 1.6489,0.50463 0.581,2.5 -1.579,2.95038 -4.3616,3.39676 -3.2587,0.52276 z m 33.8837,-10.52276 c 0.4249,-0.6875 1.0206,-1.25 1.3238,-1.25 0.3032,0 0.5512,0.5625 0.5512,1.25 0,0.6875 -0.5957,1.25 -1.3237,1.25 -0.7282,0 -0.9762,-0.5625 -0.5513,-1.25 z m -284.37499,-6.10246 c 0,-0.6875 0.5625,-1.59764 1.25,-2.02254 0.6875,-0.4249 1.25,-0.21004 1.25,0.47746 0,0.6875 -0.5625,1.59764 -1.25,2.02254 -0.6875,0.4249 -1.25,0.21004 -1.25,-0.47746 z m 2.54163,-5.85118 c 0.0712,-2.01435 4.84812,-7.04145 6.24737,-6.57502 0.733,0.24434 -0.38212,2.08724 -2.47812,4.09532 -2.096,2.00809 -3.79213,3.12395 -3.76925,2.4797 z m 292.45836,-7.89882 c 0,-0.6875 0.5625,-1.59764 1.25,-2.02254 0.6875,-0.4249 1.25,-0.21004 1.25,0.47746 0,0.6875 -0.5625,1.59764 -1.25,2.02254 -0.6875,0.4249 -1.25,0.21004 -1.25,-0.47746 z m -81.702,-660.77254 c -0.3957,-1.0313 -0.1747,-1.875 0.4913,-1.875 0.6658,0 1.2107,0.8437 1.2107,1.875 0,1.0312 -0.2211,1.875 -0.4912,1.875 -0.2703,0 -0.815,-0.8438 -1.2108,-1.875 z m -1612.04799,-0.742 c 0,-0.6232 1.125,-1.133 2.5,-1.133 1.375,0 2.5,0.2156 2.5,0.4792 0,0.2636 -1.125,0.7734 -2.5,1.133 -1.375,0.3596 -2.5,0.1439 -2.5,-0.4792 z"
       id="path3347"
       inkscape:connector-curvature="0" />
    <g
       id="g4227"
       transform="matrix(0.56637464,0,0,0.52650596,280.13732,305.09879)"
       style="stroke-width:10;stroke-miterlimit:4;stroke-dasharray:none">
      <path
         sodipodi:nodetypes="csc"
         inkscape:connector-curvature="0"
         id="path4157"
         d="m 478.67383,604.63184 c 0,0 167.72574,0.72516 157.58381,70.71068 -12.5264,86.43976 -186.87823,23.23351 -186.87823,23.23351"
         style="fill:#ffffff;fill-opacity:1;fill-rule:evenodd;stroke:#000000;stroke-width:10;stroke-linecap:butt;stroke-linejoin:miter;stroke-miterlimit:4;stroke-dasharray:none;stroke-opacity:1" />
      <path
         sodipodi:nodetypes="cc"
         inkscape:connector-curvature="0"
         id="path4159"
         d="m 634.60499,657.83381 c -10.63554,4.1266 -22.26807,0.27728 -33.82524,-2.96918"
         style="fill:none;fill-rule:evenodd;stroke:#000000;stroke-width:10;stroke-linecap:butt;stroke-linejoin:miter;stroke-miterlimit:4;stroke-dasharray:none;stroke-opacity:1" />
      <path
         sodipodi:nodetypes="cc"
         inkscape:connector-curvature="0"
         id="path4161"
         d="m 635.12493,679.58798 c -15.05519,3.05316 -24.77222,-1.90091 -36.36549,-4.04061"
         style="fill:none;fill-rule:evenodd;stroke:#000000;stroke-width:10;stroke-linecap:butt;stroke-linejoin:miter;stroke-miterlimit:4;stroke-dasharray:none;stroke-opacity:1" />
      <path
         sodipodi:nodetypes="cc"
         inkscape:connector-curvature="0"
         id="path4163"
         d="m 628.05386,697.63766 c -13.57575,3.13438 -23.47624,0.38836 -32.32489,-4.04061"
         style="fill:none;fill-rule:evenodd;stroke:#000000;stroke-width:10;stroke-linecap:butt;stroke-linejoin:miter;stroke-miterlimit:4;stroke-dasharray:none;stroke-opacity:1" />
    </g>
  </g>
  <g
     inkscape:groupmode="layer"
     id="layer2"
     inkscape:label="sleeve"
     style="display:inline">
    <path
       style="fill:#006fef;fill-opacity:1;fill-rule:evenodd;stroke:#000098;stroke-width:5.46076632;stroke-linecap:butt;stroke-linejoin:miter;stroke-miterlimit:4;stroke-dasharray:none;stroke-opacity:1"
       d="m 394.48385,452.18492 c 62.19099,-5.97762 25.3993,36.37062 46.91424,77.11845 14.90612,28.23119 16.86032,51.18262 50.91911,67.01327 16.93187,7.86998 50.91184,2.12402 62.93373,13.29628 0.37061,0.34442 -19.45328,62.22851 -21.74075,66.48142 -9.76817,18.16111 -4.74599,56.9081 -9.72613,56.9081 -7.07261,0 -15.51879,-42.31539 -31.46685,-45.73923 -48.86334,-10.49029 -120.57953,-63.17699 -131.58871,-114.34804 -4.99519,-23.21779 -5.87097,-46.82777 -12.01462,-69.67252 -8.89339,-33.06942 16.87138,-55.46869 46.81607,-50.99598"
       id="path3353"
       inkscape:connector-curvature="0"
       sodipodi:nodetypes="cssssssssc" />
    <path
       sodipodi:type="star"
       style="fill:#ffff00;fill-opacity:1;stroke:#545400;stroke-width:2.8444922;stroke-miterlimit:4;stroke-dasharray:none;stroke-opacity:1"
       id="path4184"
       sodipodi:sides="5"
       sodipodi:cx="201.02036"
       sodipodi:cy="531.12354"
       sodipodi:r1="29.084677"
       sodipodi:r2="14.542338"
       sodipodi:arg1="1.2160907"
       sodipodi:arg2="1.8444092"
       inkscape:flatsided="false"
       inkscape:rounded="0"
       inkscape:randomized="0"
       d="m 211.12188,558.39765 -14.03103,-13.27274 -18.88818,4.03391 8.2873,-17.44581 -9.67325,-16.71717 19.15287,2.49064 12.90979,-14.3657 3.54982,18.98511 17.65193,7.83869 -16.95896,9.2428 z"
       inkscape:transform-center-x="-0.57764064"
       inkscape:transform-center-y="-3.0496039"
       transform="matrix(1.0953234,-0.28876948,0.26844218,1.0182204,51.058218,86.512918)" />
    <path
       sodipodi:type="star"
       style="fill:#ffff00;fill-opacity:1;stroke:#545400;stroke-width:3.60873723;stroke-miterlimit:4;stroke-dasharray:none;stroke-opacity:1"
       id="path4188"
       sodipodi:sides="5"
       sodipodi:cx="199.00006"
       sodipodi:cy="350.30621"
       sodipodi:r1="23.079279"
       sodipodi:r2="11.539639"
       sodipodi:arg1="1.1659045"
       sodipodi:arg2="1.7942231"
       inkscape:flatsided="false"
       inkscape:rounded="0"
       inkscape:randomized="0"
       d="m 208.09144,371.51942 -11.64825,-9.9604 -14.8087,3.94884 5.8734,-14.15606 -8.33171,-12.86365 15.27819,1.21146 9.65942,-11.89901 3.56906,14.90479 14.30156,5.50965 -13.07241,8.00021 z"
       inkscape:transform-center-x="-1.5478046"
       inkscape:transform-center-y="-0.63295278"
       transform="matrix(0.89285982,0,0,0.83000893,217.38517,202.84842)" />
    <path
       sodipodi:type="star"
       style="fill:#ffff00;fill-opacity:1;stroke:#545400;stroke-width:5;stroke-miterlimit:4;stroke-dasharray:none;stroke-opacity:1"
       id="path4190"
       sodipodi:sides="5"
       sodipodi:cx="231.32494"
       sodipodi:cy="441.21991"
       sodipodi:r1="22.177391"
       sodipodi:r2="11.088696"
       sodipodi:arg1="1.0460006"
       sodipodi:arg2="1.6743191"
       inkscape:flatsided="false"
       inkscape:rounded="0"
       inkscape:randomized="0"
       d="m 242.43661,460.41281 -12.25756,-8.16357 -13.67395,5.46943 3.97622,-14.18031 -9.42722,-11.31455 14.715,-0.60035 7.8476,-12.46221 5.11815,13.80928 14.27731,3.61248 -11.55181,9.13495 z"
       inkscape:transform-center-x="-0.44001917"
       inkscape:transform-center-y="-0.89027681"
       transform="matrix(0.56637464,0,0,0.52650596,245.7185,299.42239)" />
    <path
       sodipodi:type="star"
       style="fill:#ffff00;fill-opacity:1;stroke:#545400;stroke-width:5;stroke-miterlimit:4;stroke-dasharray:none;stroke-opacity:1"
       id="path4194"
       sodipodi:sides="5"
       sodipodi:cx="411.13208"
       sodipodi:cy="624.05756"
       sodipodi:r1="17.670452"
       sodipodi:r2="8.8352261"
       sodipodi:arg1="1.0303768"
       sodipodi:arg2="1.6586954"
       inkscape:flatsided="false"
       inkscape:rounded="0"
       inkscape:randomized="0"
       d="m 420.22345,639.20984 -9.86698,-6.35117 -10.82568,4.52761 2.99125,-11.34668 -7.65133,-8.89673 11.71568,-0.66146 6.09691,-10.02609 4.24943,10.93787 11.41942,2.70027 -9.08939,7.42144 z"
       inkscape:transform-center-x="-0.29782776"
       inkscape:transform-center-y="-0.76109431"
       transform="matrix(0.56637464,0,0,0.52650596,286.10457,297.55842)" />
    <path
       sodipodi:type="star"
       style="fill:#ffff00;fill-opacity:1;stroke:#545400;stroke-width:3.37248683;stroke-miterlimit:4;stroke-dasharray:none;stroke-opacity:1"
       id="path4196"
       sodipodi:sides="5"
       sodipodi:cx="235.36554"
       sodipodi:cy="606.88495"
       sodipodi:r1="16.933243"
       sodipodi:r2="8.4666214"
       sodipodi:arg1="1.2679115"
       sodipodi:arg2="1.89623"
       inkscape:flatsided="false"
       inkscape:rounded="0"
       inkscape:randomized="0"
       d="m 240.4163,623.04739 -7.75771,-8.14021 -11.10367,1.7758 5.34454,-9.89349 -5.12012,-10.01147 11.06082,2.02571 7.93927,-7.96323 1.49142,11.14543 10.02686,5.08993 -10.13907,4.86255 z"
       inkscape:transform-center-x="-1.6358226"
       inkscape:transform-center-y="0.061859238"
       transform="matrix(0.95540656,0,0,0.88815296,199.21966,82.711796)" />
    <path
       sodipodi:type="star"
       style="fill:#ffff00;fill-opacity:1;stroke:#545400;stroke-width:2.96112657;stroke-miterlimit:4;stroke-dasharray:none;stroke-opacity:1"
       id="path4200"
       sodipodi:sides="5"
       sodipodi:cx="405.07117"
       sodipodi:cy="722.0423"
       sodipodi:r1="16.193977"
       sodipodi:r2="8.0969887"
       sodipodi:arg1="1.5083775"
       sodipodi:arg2="2.136696"
       inkscape:flatsided="false"
       inkscape:rounded="0"
       inkscape:randomized="0"
       d="m 406.08132,738.20474 -5.35156,-9.32772 -10.71783,-0.87954 7.21746,-7.97206 -2.4755,-10.46506 9.8122,4.40072 9.18789,-5.58822 -1.15319,10.69185 8.15393,7.01134 -10.52492,2.20722 z"
       inkscape:transform-center-x="-0.35342559"
       inkscape:transform-center-y="1.5687938"
       transform="matrix(1.0320871,0,0,1.0664643,88.563258,-104.40598)" />
    <path
       sodipodi:type="star"
       style="fill:#ffff00;fill-opacity:1;stroke:#545400;stroke-width:1.56876171;stroke-miterlimit:4;stroke-dasharray:none;stroke-opacity:1"
       id="path4202"
       sodipodi:sides="5"
       sodipodi:cx="356.58386"
       sodipodi:cy="648.30121"
       sodipodi:r1="12.777531"
       sodipodi:r2="6.3887658"
       sodipodi:arg1="1.2490458"
       sodipodi:arg2="1.8773643"
       inkscape:flatsided="false"
       inkscape:rounded="0"
       inkscape:randomized="0"
       d="m 360.62447,660.42304 -5.96866,-6.03094 -8.35188,1.49781 3.89135,-7.5402 -4.00537,-7.48026 8.37365,1.37084 5.87641,-6.12086 1.28386,8.38743 7.63719,3.69735 -7.58018,3.81288 z"
       inkscape:transform-center-x="-2.684874"
       inkscape:transform-center-y="-0.067505857"
       transform="matrix(2.0539107,0,0,1.9093303,-261.17345,-613.7813)" />
  </g>
  <g
     inkscape:groupmode="layer"
     id="layer12"
     inkscape:label="patches"
     style="display:inline">
    <path
       style="display:inline;fill:#ffc20a;fill-opacity:1;fill-rule:evenodd;stroke:none;stroke-width:0.87130052px;stroke-linecap:butt;stroke-linejoin:miter;stroke-opacity:1"
       d="m 365.70461,255.19479 c 0,0 -0.8876,-14.6455 13.31409,-12.87028 1.12274,0.14034 29.0691,11.31697 29.0691,11.31697 l -15.53311,23.07775 c 0,0 -13.67356,-4.07871 -18.86162,-8.65415 -3.78698,-3.3398 -7.98846,-12.87029 -7.98846,-12.87029 z"
       id="path4415"
       inkscape:connector-curvature="0"
       sodipodi:nodetypes="csccsc" />
  </g>
  <g
     inkscape:groupmode="layer"
     id="layer14"
     inkscape:label="patches 2">
    <path
       style="display:inline;fill:#806000;fill-opacity:1;fill-rule:evenodd;stroke:none;stroke-width:0.87130052px;stroke-linecap:butt;stroke-linejoin:miter;stroke-opacity:1"
       d="m 470.97717,297.79756 c 8.38665,3.21561 10.13733,3.20681 3.98901,11.13243 -0.73387,0.946 -12.11274,10.65195 -12.7439,11.69926 -5.78632,9.60173 -41.70483,6.32522 -55.6113,2.47918 -7.22607,-1.99846 -11.64148,-2.55405 -18.15697,-4.356 -10.91641,-3.01909 -12.07907,-1.62315 -15.14826,-12.56728 -10.04478,-35.81777 42.77093,-35.31467 17.10545,-56.72332 -26.61918,-22.20416 -33.96809,54.52823 -49.0559,51.72722 -31.47645,-5.84351 -6.19123,-77.63173 22.86249,-85.68362 16.16783,-4.48071 32.71015,-6.65706 44.91916,-13.41021 3.33509,-1.84474 19.04124,-1.87537 21.82618,-1.29039 0,0 23.88316,2.89738 24.62584,2.98541 26.44899,3.13494 25.48997,31.06897 33.233,50.34198 7.55814,18.8128 -33.39362,23.97154 -21.41327,40.53822"
       id="path4411"
       inkscape:connector-curvature="0"
       sodipodi:nodetypes="cssssssssssssc" />
  </g>
  <g
     inkscape:groupmode="layer"
     id="layer3"
     inkscape:label="hat">
    <ellipse
       id="path137"
       cx="377.77353"
       cy="278.04422"
       rx="144.90858"
       ry="39.208889"
       style="fill:#006fef;fill-opacity:1;stroke:#00008b;stroke-width:8.97696114;stroke-miterlimit:4;stroke-dasharray:none;stroke-opacity:1"
       transform="matrix(0.98656939,-0.1633427,0.13538538,0.99079302,0,0)" />
    <path
       style="fill:#006fef;fill-opacity:1;stroke:#00008b;stroke-width:9.375;stroke-linecap:butt;stroke-linejoin:miter;stroke-miterlimit:4;stroke-dasharray:none;stroke-opacity:1"
       d="M 493.20698,195.21617 400.39922,75.891902 272.45708,181.29501 404.37669,117.6554 l -31.15688,15.9099 -36.4602,91.48194"
       id="path4913"
       inkscape:connector-curvature="0"
       sodipodi:nodetypes="cccccc" />
    <path
       sodipodi:type="star"
       style="display:inline;fill:#ffff00;fill-opacity:1;stroke:#545400;stroke-width:7.95943308;stroke-miterlimit:4;stroke-dasharray:none;stroke-opacity:1"
       id="path4273-03"
       sodipodi:sides="5"
       sodipodi:cx="277.14285"
       sodipodi:cy="9.5050621"
       sodipodi:r1="55.475681"
       sodipodi:r2="27.737841"
       sodipodi:arg1="1.3633001"
       sodipodi:arg2="1.9916186"
       inkscape:flatsided="false"
       inkscape:rounded="0"
       inkscape:randomized="0"
       d="m 288.57142,63.790778 -22.75978,-28.967909 -36.76595,2.32662 20.51696,-30.5974216 -13.57405,-34.2475264 35.43997,10.057663 28.37672,-23.492755 1.38614,36.8133991 31.11183,19.7282049 -34.58328,12.694269 z"
       inkscape:transform-center-x="-2.1942849"
       inkscape:transform-center-y="1.1339491"
       transform="matrix(0.38901656,0,0,0.39160137,269.75983,198.17894)" />
    <path
       sodipodi:type="star"
       style="display:inline;fill:#ffff00;fill-opacity:1;stroke:#545400;stroke-width:7.95943308;stroke-miterlimit:4;stroke-dasharray:none;stroke-opacity:1"
       id="path4273-03-7"
       sodipodi:sides="5"
       sodipodi:cx="277.14285"
       sodipodi:cy="9.5050621"
       sodipodi:r1="55.475681"
       sodipodi:r2="27.737841"
       sodipodi:arg1="1.3633001"
       sodipodi:arg2="1.9916186"
       inkscape:flatsided="false"
       inkscape:rounded="0"
       inkscape:randomized="0"
       d="m 288.57142,63.790778 -22.75978,-28.967909 -36.76595,2.32662 20.51696,-30.5974216 -13.57405,-34.2475264 35.43997,10.057663 28.37672,-23.492755 1.38614,36.8133991 31.11183,19.7282049 -34.58328,12.694269 z"
       inkscape:transform-center-x="0.31083839"
       inkscape:transform-center-y="0.80015225"
       transform="matrix(0.17996034,0.07380855,-0.07429903,0.18115622,359.00368,156.77717)" />
    <path
       sodipodi:type="star"
       style="display:inline;fill:#ffff00;fill-opacity:1;stroke:#545400;stroke-width:7.95943308;stroke-miterlimit:4;stroke-dasharray:none;stroke-opacity:1"
       id="path4273-03-7-6"
       sodipodi:sides="5"
       sodipodi:cx="277.14285"
       sodipodi:cy="9.5050621"
       sodipodi:r1="55.475681"
       sodipodi:r2="27.737841"
       sodipodi:arg1="1.3633001"
       sodipodi:arg2="1.9916186"
       inkscape:flatsided="false"
       inkscape:rounded="0"
       inkscape:randomized="0"
       d="m 288.57142,63.790778 -22.75978,-28.967909 -36.76595,2.32662 20.51696,-30.5974216 -13.57405,-34.2475264 35.43997,10.057663 28.37672,-23.492755 1.38614,36.8133991 31.11183,19.7282049 -34.58328,12.694269 z"
       inkscape:transform-center-x="-1.0971448"
       inkscape:transform-center-y="0.56697344"
       transform="matrix(0.19450817,0,0,0.19580072,458.03072,191.69227)" />
    <path
       sodipodi:type="star"
       style="display:inline;fill:#ffff00;fill-opacity:1;stroke:#545400;stroke-width:7.95943308;stroke-miterlimit:4;stroke-dasharray:none;stroke-opacity:1"
       id="path4273-03-7-5"
       sodipodi:sides="5"
       sodipodi:cx="277.14285"
       sodipodi:cy="9.5050621"
       sodipodi:r1="55.475681"
       sodipodi:r2="27.737841"
       sodipodi:arg1="1.3633001"
       sodipodi:arg2="1.9916186"
       inkscape:flatsided="false"
       inkscape:rounded="0"
       inkscape:randomized="0"
       d="m 288.57142,63.790778 -22.75978,-28.967909 -36.76595,2.32662 20.51696,-30.5974216 -13.57405,-34.2475264 35.43997,10.057663 28.37672,-23.492755 1.38614,36.8133991 31.11183,19.7282049 -34.58328,12.694269 z"
       inkscape:transform-center-x="-1.0435331"
       inkscape:transform-center-y="-0.33442838"
       transform="matrix(0.18893882,-0.04621203,0.04651911,0.19019436,261.98097,244.14592)" />
    <path
       sodipodi:type="star"
       style="display:inline;fill:#ffff00;fill-opacity:1;stroke:#545400;stroke-width:7.95943308;stroke-miterlimit:4;stroke-dasharray:none;stroke-opacity:1"
       id="path4273-03-7-2"
       sodipodi:sides="5"
       sodipodi:cx="277.14285"
       sodipodi:cy="9.5050621"
       sodipodi:r1="55.475681"
       sodipodi:r2="27.737841"
       sodipodi:arg1="1.3633001"
       sodipodi:arg2="1.9916186"
       inkscape:flatsided="false"
       inkscape:rounded="0"
       inkscape:randomized="0"
       d="m 288.57142,63.790778 -22.75978,-28.967909 -36.76595,2.32662 20.51696,-30.5974216 -13.57405,-34.2475264 35.43997,10.057663 28.37672,-23.492755 1.38614,36.8133991 31.11183,19.7282049 -34.58328,12.694269 z"
       inkscape:transform-center-x="-1.0971448"
       inkscape:transform-center-y="0.56697344"
       transform="matrix(0.19450817,0,0,0.19580072,382.19247,224.30287)" />
    <path
       sodipodi:type="star"
       style="display:inline;fill:#ffff00;fill-opacity:1;stroke:#545400;stroke-width:7.95943308;stroke-miterlimit:4;stroke-dasharray:none;stroke-opacity:1"
       id="path4273-03-7-67"
       sodipodi:sides="5"
       sodipodi:cx="277.14285"
       sodipodi:cy="9.5050621"
       sodipodi:r1="55.475681"
       sodipodi:r2="27.737841"
       sodipodi:arg1="1.3633001"
       sodipodi:arg2="1.9916186"
       inkscape:flatsided="false"
       inkscape:rounded="0"
       inkscape:randomized="0"
       d="m 288.57142,63.790778 -22.75978,-28.967909 -36.76595,2.32662 20.51696,-30.5974216 -13.57405,-34.2475264 35.43997,10.057663 28.37672,-23.492755 1.38614,36.8133991 31.11183,19.7282049 -34.58328,12.694269 z"
       inkscape:transform-center-x="0.27100115"
       inkscape:transform-center-y="0.8329426"
       transform="matrix(0.18075512,0.0718402,-0.07231759,0.18195628,313.96762,219.31279)" />
    <path
       sodipodi:type="star"
       style="display:inline;fill:#ffff00;fill-opacity:1;stroke:#545400;stroke-width:7.95943308;stroke-miterlimit:4;stroke-dasharray:none;stroke-opacity:1"
       id="path4273-03-73"
       sodipodi:sides="5"
       sodipodi:cx="277.14285"
       sodipodi:cy="9.5050621"
       sodipodi:r1="55.475681"
       sodipodi:r2="27.737841"
       sodipodi:arg1="1.3633001"
       sodipodi:arg2="1.9916186"
       inkscape:flatsided="false"
       inkscape:rounded="0"
       inkscape:randomized="0"
       d="m 288.57142,63.790778 -22.75978,-28.967909 -36.76595,2.32662 20.51696,-30.5974216 -13.57405,-34.2475264 35.43997,10.057663 28.37672,-23.492755 1.38614,36.8133991 31.11183,19.7282049 -34.58328,12.694269 z"
       inkscape:transform-center-x="-1.489764"
       inkscape:transform-center-y="-1.3576612"
       transform="matrix(0.36775592,-0.12684426,0.12768707,0.37019947,321.128,181.63461)" />
    <path
       sodipodi:type="star"
       style="display:inline;fill:#ffff00;fill-opacity:1;stroke:#545400;stroke-width:7.95943308;stroke-miterlimit:4;stroke-dasharray:none;stroke-opacity:1"
       id="path4273-03-7-60"
       sodipodi:sides="5"
       sodipodi:cx="277.14285"
       sodipodi:cy="9.5050621"
       sodipodi:r1="55.475681"
       sodipodi:r2="27.737841"
       sodipodi:arg1="1.3633001"
       sodipodi:arg2="1.9916186"
       inkscape:flatsided="false"
       inkscape:rounded="0"
       inkscape:randomized="0"
       d="m 288.57142,63.790778 -22.75978,-28.967909 -36.76595,2.32662 20.51696,-30.5974216 -13.57405,-34.2475264 35.43997,10.057663 28.37672,-23.492755 1.38614,36.8133991 31.11183,19.7282049 -34.58328,12.694269 z"
       inkscape:transform-center-x="0.2331449"
       inkscape:transform-center-y="0.54810578"
       transform="matrix(0.13497664,0.05055889,-0.05572691,0.12409208,335.6214,101.94299)" />
  </g>
  <g
     inkscape:groupmode="layer"
     id="layer10"
     inkscape:label="face"
     style="display:inline">
    <path
       style="fill:#ff64f1;fill-opacity:1;fill-rule:evenodd;stroke:#bbbbbb;stroke-width:3.10662103;stroke-linecap:butt;stroke-linejoin:miter;stroke-miterlimit:4;stroke-dasharray:none;stroke-opacity:1"
       d="m 524.02399,279.18025 c -13.23891,1.46473 -12.66665,20.15981 4.62879,18.27979 z"
       id="path4397"
       inkscape:connector-curvature="0"
       sodipodi:nodetypes="ccc" />
    <g
       id="g4399"
       transform="matrix(0.76558202,0,0,0.37133112,76.482023,311.77906)">
      <ellipse
         ry="27.776201"
         rx="18.100531"
         cy="-132.6019"
         cx="531.27759"
         id="path4391"
         style="fill:#00c500;fill-opacity:1;stroke:#007e01;stroke-width:5;stroke-miterlimit:4;stroke-dasharray:none;stroke-opacity:1" />
      <path
         sodipodi:nodetypes="cc"
         inkscape:connector-curvature="0"
         id="path4393"
         d="m 532.35039,-157.29546 v 48.99239"
         style="fill:none;fill-rule:evenodd;stroke:#007e01;stroke-width:5;stroke-linecap:round;stroke-linejoin:round;stroke-miterlimit:4;stroke-dasharray:none;stroke-opacity:1" />
    </g>
    <path
       style="fill:none;fill-rule:evenodd;stroke:#bbbbbb;stroke-width:6.21324205;stroke-linecap:butt;stroke-linejoin:miter;stroke-miterlimit:4;stroke-dasharray:none;stroke-opacity:1"
       d="m 512.78508,331.12143 c -15.10038,2.89411 -30.48104,-10.16271 -34.20597,-19.45659"
       id="path4395"
       inkscape:connector-curvature="0"
       sodipodi:nodetypes="cc" />
  </g>
  <g
     inkscape:groupmode="layer"
     id="layer8"
     inkscape:label="ear_front"
     style="display:none">
    <path
       style="fill:#806000;fill-opacity:1;fill-rule:evenodd;stroke:#bbbbbb;stroke-width:5.80189133;stroke-linecap:butt;stroke-linejoin:miter;stroke-miterlimit:4;stroke-dasharray:none;stroke-opacity:1"
       d="m 412.48057,201.97024 c 12.08648,-0.77623 36.37299,-54.84987 40.01643,-54.84987 0.91936,0 4.44129,54.8377 6.22478,59.48507"
       id="path4388"
       inkscape:connector-curvature="0"
       sodipodi:nodetypes="csc" />
  </g>
</svg>
